<svg xml:space="preserve" class="u-svg-content" viewBox="0 0 112.2 112.2"><path d="M70.3 32h23v6.9h-23zM48.3 54s8.5-.6 8.5-10.5-6.9-14.8-15.7-14.8H12v55.9h29.1s17.8.6 17.8-16.5c-.2 0 .6-13.9-10.6-14.1zM24.8 38.5h16.3s4 0 4 5.8-2.4 6.6-5 6.6H24.8V38.5zm15.5 36H24.8V59.6h16.3s6 0 6 7.7c-.2 6.4-4.6 7.2-6.8 7.2zM82.3 43C61 43 61 64.2 61 64.3c0 0-1.5 21.3 21.3 21.3 0 0 19.1 1.2 19.1-14.8h-9.7s.2 6-8.9 6c0 0-9.7.7-9.7-9.6h29c-.3 0 2.9-24.4-19.8-24.2zm-9.5 16.6S74 51 82.5 51s8.5 8.6 8.6 8.6H72.8z"/></svg>