<svg class="u-svg-content" viewBox="0 0 112 112"><path fill="currentColor" d="M55.9 32.9c-12.8 0-23.2 10.4-23.2 23.2s10.4 23.2 23.2 23.2 23.2-10.4 23.2-23.2-10.4-23.2-23.2-23.2zm0 36.5c-7.4 0-13.3-6-13.3-13.3-.1-7.4 6-13.3 13.3-13.3s13.3 6 13.3 13.3c.1 7.4-5.9 13.3-13.3 13.3z"/><path fill="#FFF" d="M79.7 26.8c-3 0-5.4 2.5-5.4 5.4s2.5 5.4 5.4 5.4c3 0 5.4-2.5 5.4-5.4s-2.4-5.4-5.4-5.4z"/><path fill="currentColor" d="M78.2 11H33.5C21 11 10.8 21.3 10.8 33.7v44.7c0 12.6 10.2 22.8 22.7 22.8h44.7c12.6 0 22.7-10.2 22.7-22.7V33.7C100.8 21.1 90.6 11 78.2 11zM91 78.4c0 7.1-5.8 12.8-12.8 12.8H33.5c-7.1 0-12.8-5.8-12.8-12.8V33.7c0-7.1 5.8-12.8 12.8-12.8h44.7c7.1 0 12.8 5.8 12.8 12.8v44.7z"/></svg>