<svg viewBox="0 0 112 112"><path fill="currentColor" d="M92.2 38.2v2.3c0 24.3-18.6 52.4-52.6 52.4C29 93 19.4 90 11.1 84.7c1.4.2 2.9.2 4.4.2 8.7 0 16.7-2.9 23-7.9-8.1-.2-14.9-5.5-17.3-12.8 1.1.2 2.4.2 3.4.2 1.6 0 3.3-.2 4.8-.7-8.4-1.6-14.9-9.2-14.9-18v-.2c2.5 1.4 5.4 2.2 8.4 2.3-5-3.3-8.3-8.9-8.3-15.4 0-3.4 1-6.5 2.5-9.2 9.1 11.1 22.7 18.5 38 19.2-.2-1.4-.4-2.8-.4-4.3.1-10 8.3-18.2 18.5-18.2 5.4 0 10.1 2.2 13.5 5.7 4.3-.8 8.1-2.3 11.7-4.5-1.4 4.3-4.3 7.9-8.1 10.1 3.7-.4 7.3-1.4 10.6-2.9-2 4-5.2 7.2-8.7 9.9z"/></svg>